<svg xmlns="http://www.w3.org/2000/svg" viewBox="0 0 860 560">
  <defs>
    <linearGradient id="bg" x1="0" x2="1" y1="0" y2="1">
      <stop offset="0" stop-color="#fbfafb"/>
      <stop offset="1" stop-color="#f7f5f7"/>
    </linearGradient>
    <linearGradient id="cream" x1="0" x2="0" y1="0" y2="1">
      <stop offset="0" stop-color="#fff7e5"/>
      <stop offset="1" stop-color="#f0ddbd"/>
    </linearGradient>
    <linearGradient id="plastic" x1="0" x2="1" y1="0" y2="1">
      <stop offset="0" stop-color="#ffffff" stop-opacity=".9"/>
      <stop offset=".52" stop-color="#dce2e7" stop-opacity=".62"/>
      <stop offset="1" stop-color="#ffffff" stop-opacity=".84"/>
    </linearGradient>
    <filter id="shadow" x="-20%" y="-30%" width="140%" height="180%">
      <feDropShadow dx="0" dy="16" stdDeviation="18" flood-color="#b9b1aa" flood-opacity=".36"/>
    </filter>
  </defs>
  <rect width="860" height="560" rx="16" fill="url(#bg)"/>
  <ellipse cx="430" cy="382" rx="282" ry="34" fill="#d8d1cc" opacity=".28"/>
  <g filter="url(#shadow)">
    <path d="M216 307h424l-24 116H242z" fill="#f5e2c7"/>
    <path d="M238 312h380l-16 82H258z" fill="url(#cream)"/>
    <path d="M244 294h366l30 33H214z" fill="#fff3dd"/>
    <path d="M256 279h343l18 29H238z" fill="#fff8ea"/>
    <g fill="#ef8558">
      <circle cx="308" cy="279" r="15"/>
      <circle cx="367" cy="272" r="16"/>
      <circle cx="426" cy="278" r="15"/>
      <circle cx="486" cy="271" r="16"/>
      <circle cx="546" cy="279" r="15"/>
    </g>
    <g fill="#f6b54b">
      <circle cx="334" cy="269" r="13"/>
      <circle cx="397" cy="265" r="14"/>
      <circle cx="459" cy="267" r="13"/>
      <circle cx="520" cy="265" r="14"/>
    </g>
    <g fill="none" stroke="#fefefe" stroke-linecap="round" stroke-width="13">
      <path d="M257 292c22-20 45-20 67 0s45 20 67 0 45-20 67 0 45 20 67 0 45-20 67 0"/>
      <path d="M268 318c20-15 40-15 60 0s40 15 60 0 40-15 60 0 40 15 60 0 40-15 60 0"/>
    </g>
    <path d="M202 271 650 238c24-2 46 13 52 36l33 126c5 18-10 35-28 32l-506-73c-18-3-30-19-27-37l7-28c3-13 10-21 21-23z" fill="url(#plastic)" stroke="#ccd6df" stroke-width="5"/>
    <path d="M226 292 633 264c20-2 37 9 42 28l19 72c4 13-7 26-20 24l-442-61c-11-2-19-12-17-24z" fill="none" stroke="#e5ebf0" stroke-width="4" opacity=".95"/>
    <path d="M204 347h508l47 57c12 15 2 37-17 37H195c-19 0-30-21-18-36z" fill="url(#plastic)" stroke="#ccd6df" stroke-width="5"/>
    <path d="M251 365h414l23 31H226z" fill="none" stroke="#e7edf1" stroke-width="4" opacity=".92"/>
    <path d="M219 420h506" stroke="#ccd6df" stroke-width="5" opacity=".82"/>
  </g>
</svg>
