<?xml version="1.0" encoding="UTF-8"?>
<!DOCTYPE svg PUBLIC "-//W3C//DTD SVG 1.1//EN" "http://www.w3.org/Graphics/SVG/1.1/DTD/svg11.dtd">
<!-- Creator: CorelDRAW -->
<svg xmlns="http://www.w3.org/2000/svg" xml:space="preserve" width="201mm" height="43.196mm" version="1.1" style="shape-rendering:geometricPrecision; text-rendering:geometricPrecision; image-rendering:optimizeQuality; fill-rule:evenodd; clip-rule:evenodd"
viewBox="0 0 20100 4319.6"
 xmlns:xlink="http://www.w3.org/1999/xlink"
 xmlns:xodm="http://www.corel.com/coreldraw/odm/2003">
 <defs>
  <style type="text/css">
   <![CDATA[
    .fil1 {fill:#0E3056}
    .fil2 {fill:#255384}
    .fil3 {fill:#5E8CB0}
    .fil0 {fill:#0E3056;fill-rule:nonzero}
   ]]>
  </style>
 </defs>
 <g id="Слой_x0020_1">
  <metadata id="CorelCorpID_0Corel-Layer"/>
  <polygon class="fil0" points="17522.42,3233.85 17992.27,3233.8 17422.79,2173.99 17992.26,1113.66 17522.41,1113.66 17070.82,1956.27 16723.46,1956.26 16723.01,1113.66 16301.33,1113.66 16301.33,3233.83 16742.7,3233.83 16724.39,2378.23 17064.21,2378.23 "/>
  <polygon class="fil0" points="14187.41,3233.85 15882.49,3233.85 15882.49,2800.2 14610.98,2800.2 14610.98,2378.24 15665.87,2378.24 15665.87,1956.27 14610.98,1956.27 14610.98,1534.3 15882.52,1534.3 15882.57,1113.62 14187.41,1113.67 "/>
  <path class="fil0" d="M10387.53 3233.85l421.83 -2.05 -2.93 -642.59 530.29 2.06c446.61,1.72 739.41,-369.15 739.41,-743.42 0,-313.55 -225.79,-734.18 -739.41,-734.18l-949.19 0 0 2120.18zm421.72 -1066.61l-2.82 -632.94 530.29 0c181.65,0 316.48,156.19 316.48,313.55 0,157.36 -125.17,319.39 -316.48,319.39l-527.47 0z"/>
  <path class="fil1" d="M9126.22 1109.66c576.86,0 1047.5,454.11 1049.43,1062.15 1.95,608.04 -499.72,1060.37 -1049.52,1060.37 -549.8,0 -1056.89,-451.45 -1060,-1059.61 -3.09,-608.16 483.21,-1062.91 1060.09,-1062.91zm-2.59 424.64c286.99,0 630.59,243.11 629.81,636.37 -0.77,393.24 -339.52,629.53 -629.86,629.53 -290.32,0.01 -636.8,-229.82 -636.14,-629.03 0.66,-399.19 349.2,-636.87 636.19,-636.87z"/>
  <polygon class="fil0" points="7596.28,3226.61 8066.12,3226.56 7496.65,2166.75 8066.12,1106.42 7596.27,1106.42 7141.61,1956.73 6797.32,1956.27 6796.87,1106.42 6375.2,1106.42 6375.2,3226.6 6816.56,3226.6 6797.8,2378.23 7141.61,2378.24 "/>
  <path class="fil2" d="M2846.22 4276.39l2171.96 0c37.63,0 64.07,-18.77 77.91,-37.64 15,-20.44 17.69,-42.69 6.78,-62.99l-1080.6 -2009.17 -2372.86 0 1107.61 2060.59c15.94,29.67 44.3,49.21 89.2,49.21z"/>
  <path class="fil3" d="M2845.73 56.78l2172.23 0c37.64,0 64.1,18.79 77.92,37.63 15,20.44 17.67,42.74 6.79,63.01l-1080.31 2009.17 -2373.18 0 1107.6 -2060.32c15.97,-29.69 44.05,-49.49 88.95,-49.49z"/>
  <path class="fil2" d="M135.82 57l2094.27 0c29.54,0 53.58,13.19 68.78,28.93 23.13,23.93 26.04,54.56 17.73,69.98l-1084.04 2010.9 1081.85 2006.82c25.11,46.56 -21.54,102.97 -83.96,102.97l-2094.52 0c-48.29,0 -93.19,-34.34 -93.19,-82.46l0 -4054.61c0,-46.76 42.25,-82.53 93.08,-82.53z"/>
  <path class="fil0" d="M12288.55 3233.85l421.83 -2.05 -2.94 -642.59 528.17 2.06c446.58,1.73 739.36,-369.16 739.37,-743.42 0,-313.55 -225.76,-734.18 -739.37,-734.18l-947.06 0 0 2120.18zm421.72 -1066.61l-2.83 -632.94 528.17 0c181.65,0 316.46,156.19 316.46,313.55 0,157.36 -125.17,319.39 -316.46,319.39l-525.34 0z"/>
  <path class="fil1" d="M20042.72 2589.21c-147.94,463.14 -553.48,642.97 -990.45,642.97 -549.8,0 -1060,-400.97 -1060,-1059.61 0,-658.62 539.28,-1062.91 1060.08,-1062.91 455.78,0 846.47,179.09 990.37,636.64l-529.73 -1.49c-125.67,-134.97 -303.24,-210.51 -463.22,-210.51 -286.99,0 -635.53,237.68 -636.19,636.87 -0.66,399.21 345.82,629.03 636.14,629.03 164.01,0 338.03,-74.49 463.27,-210.99l529.73 0z"/>
 </g>
</svg>
